<svg xmlns="http://www.w3.org/2000/svg" width="980" height="860" viewBox="0 0 980 860"><title>Interrogation and sampling clocks versus a 1.2 ms inferred literature waveform (computational illustration; candidate, not flagship)</title><desc>Three layers: MEASURED Hu ACV clocks, INFERRED Clements tau, MODELED T over tau ratios. Waveform identity is lost on a 14 s interrogation axis. Not koff. Not a concentration at the electrode.</desc><rect x="0.00" y="0.00" width="980.00" height="860.00" fill="#fff" stroke="none" stroke-width="1" opacity="1" /><text x="20.00" y="24.00" font-size="16" font-family="sans-serif" fill="#222222" font-weight="bold" text-anchor="start">Can this ACV cadence report the shape of a 1.2 ms literature waveform?</text><text x="20.00" y="44.00" font-size="11" font-family="sans-serif" fill="#555555" font-weight="normal" text-anchor="start">Mission 2 candidate — interrogation/sampling-timescale mismatch. COMPUTATIONAL ILLUSTRATION. Not flagship. Not glutamate koff. C007 empty.</text><rect x="16.00" y="56.00" width="948.00" height="168.00" fill="#f4f4f4" stroke="#ccc" stroke-width="1" opacity="1" /><text x="28.00" y="78.00" font-size="13" font-family="sans-serif" fill="#222222" font-weight="bold" text-anchor="start">Layer 1  MEASURED  — Hu PaC retina ACV clocks (S066 §6.3)</text><rect x="28.00" y="90.00" width="450.00" height="86.00" fill="#fff" stroke="#c45c26" stroke-width="2" opacity="1" /><rect x="28.00" y="90.00" width="8.00" height="86.00" fill="#c45c26" stroke="none" stroke-width="1" opacity="1" /><text x="46.00" y="112.00" font-size="11" font-family="sans-serif" fill="#c45c26" font-weight="bold" text-anchor="start">interrogation</text><text x="46.00" y="136.00" font-size="14" font-family="sans-serif" fill="#222222" font-weight="bold" text-anchor="start">14 s / scan   E045 / C034</text><text x="46.00" y="160.00" font-size="11" font-family="sans-serif" fill="#555555" font-weight="normal" text-anchor="start">one ACV sweep → one scalar</text><rect x="498.00" y="90.00" width="450.00" height="86.00" fill="#fff" stroke="#5b4b8a" stroke-width="2" opacity="1" /><rect x="498.00" y="90.00" width="8.00" height="86.00" fill="#5b4b8a" stroke="none" stroke-width="1" opacity="1" /><text x="516.00" y="112.00" font-size="11" font-family="sans-serif" fill="#5b4b8a" font-weight="bold" text-anchor="start">sampling</text><text x="516.00" y="136.00" font-size="14" font-family="sans-serif" fill="#222222" font-weight="bold" text-anchor="start">~1 min / point   E046 / C031</text><text x="516.00" y="160.00" font-size="11" font-family="sans-serif" fill="#555555" font-weight="normal" text-anchor="start">cadence after insertion</text><text x="28.00" y="208.00" font-size="11" font-family="sans-serif" fill="#555555" font-weight="normal" text-anchor="start">Authors: basal / sustained glutamate, not synaptic transients (C031). Protocol time ≠ koff. In vitro retina, not in vivo.</text><rect x="16.00" y="234.00" width="948.00" height="248.00" fill="#fff" stroke="#ccc" stroke-width="1" opacity="1" /><text x="28.00" y="256.00" font-size="13" font-family="sans-serif" fill="#222222" font-weight="bold" text-anchor="start">Layer 2  INFERRED  — Clements 1992 cultured hippocampal synapses (S049 abstract; VoR closed)</text><rect x="70.00" y="270.00" width="430.00" height="168.00" fill="#fafafa" stroke="#000" stroke-width="1" opacity="1" /><polyline points="70.00,288.00 71.79,292.11 73.58,296.11 75.38,299.99 77.17,303.77 78.96,307.45 80.75,311.03 82.54,314.51 84.33,317.89 86.12,321.18 87.92,324.38 89.71,327.49 91.50,330.52 93.29,333.46 95.08,336.33 96.88,339.11 98.67,341.82 100.46,344.46 102.25,347.02 104.04,349.51 105.83,351.94 107.62,354.29 109.42,356.59 111.21,358.82 113.00,360.99 114.79,363.10 116.58,365.15 118.38,367.15 120.17,369.09 121.96,370.97 123.75,372.81 125.54,374.60 127.33,376.33 129.12,378.02 130.92,379.67 132.71,381.26 134.50,382.82 136.29,384.33 138.08,385.80 139.88,387.23 141.67,388.62 143.46,389.97 145.25,391.29 147.04,392.57 148.83,393.81 150.62,395.02 152.42,396.20 154.21,397.35 156.00,398.46 157.79,399.54 159.58,400.60 161.38,401.62 163.17,402.62 164.96,403.59 166.75,404.53 168.54,405.45 170.33,406.34 172.12,407.21 173.92,408.05 175.71,408.87 177.50,409.67 179.29,410.44 181.08,411.20 182.88,411.93 184.67,412.65 186.46,413.34 188.25,414.02 190.04,414.68 191.83,415.31 193.62,415.94 195.42,416.54 197.21,417.13 199.00,417.70 200.79,418.26 202.58,418.80 204.38,419.32 206.17,419.83 207.96,420.33 209.75,420.82 211.54,421.29 213.33,421.74 215.12,422.19 216.92,422.62 218.71,423.04 220.50,423.45 222.29,423.85 224.08,424.24 225.88,424.62 227.67,424.98 229.46,425.34 231.25,425.69 233.04,426.02 234.83,426.35 236.62,426.67 238.42,426.98 240.21,427.28 242.00,427.58 243.79,427.86 245.58,428.14 247.38,428.41 249.17,428.67 250.96,428.93 252.75,429.18 254.54,429.42 256.33,429.65 258.12,429.88 259.92,430.11 261.71,430.32 263.50,430.53 265.29,430.74 267.08,430.94 268.88,431.13 270.67,431.32 272.46,431.50 274.25,431.68 276.04,431.85 277.83,432.02 279.62,432.18 281.42,432.34 283.21,432.50 285.00,432.65 286.79,432.80 288.58,432.94 290.38,433.08 292.17,433.21 293.96,433.34 295.75,433.47 297.54,433.59 299.33,433.72 301.12,433.83 302.92,433.95 304.71,434.06 306.50,434.17 308.29,434.27 310.08,434.37 311.88,434.47 313.67,434.57 315.46,434.66 317.25,434.75 319.04,434.84 320.83,434.93 322.62,435.01 324.42,435.10 326.21,435.18 328.00,435.25 329.79,435.33 331.58,435.40 333.37,435.47 335.17,435.54 336.96,435.61 338.75,435.67 340.54,435.74 342.33,435.80 344.12,435.86 345.92,435.92 347.71,435.98 349.50,436.03 351.29,436.09 353.08,436.14 354.88,436.19 356.67,436.24 358.46,436.29 360.25,436.33 362.04,436.38 363.83,436.42 365.62,436.47 367.42,436.51 369.21,436.55 371.00,436.59 372.79,436.63 374.58,436.67 376.38,436.70 378.17,436.74 379.96,436.77 381.75,436.81 383.54,436.84 385.33,436.87 387.12,436.90 388.92,436.93 390.71,436.96 392.50,436.99 394.29,437.02 396.08,437.04 397.88,437.07 399.67,437.10 401.46,437.12 403.25,437.14 405.04,437.17 406.83,437.19 408.62,437.21 410.42,437.23 412.21,437.26 414.00,437.28 415.79,437.30 417.58,437.31 419.38,437.33 421.17,437.35 422.96,437.37 424.75,437.39 426.54,437.40 428.33,437.42 430.12,437.44 431.92,437.45 433.71,437.47 435.50,437.48 437.29,437.50 439.08,437.51 440.88,437.52 442.67,437.54 444.46,437.55 446.25,437.56 448.04,437.57 449.83,437.58 451.62,437.60 453.42,437.61 455.21,437.62 457.00,437.63 458.79,437.64 460.58,437.65 462.38,437.66 464.17,437.67 465.96,437.68 467.75,437.69 469.54,437.69 471.33,437.70 473.12,437.71 474.92,437.72 476.71,437.73 478.50,437.73 480.29,437.74 482.08,437.75 483.88,437.75 485.67,437.76 487.46,437.77 489.25,437.77 491.04,437.78 492.83,437.79 494.62,437.79 496.42,437.80 498.21,437.80 500.00,437.81" fill="none" stroke="#0d5c4d" stroke-width="2.4" /><line x1="134.50" y1="270.00" x2="134.50" y2="438.00" stroke="#0d5c4d" stroke-width="1" /><text x="138.50" y="284.00" font-size="10" font-family="sans-serif" fill="#0d5c4d" font-weight="normal" text-anchor="start">τ = 1.2 ms</text><text x="78.00" y="288.00" font-size="10" font-family="sans-serif" fill="#0d5c4d" font-weight="normal" text-anchor="start">peak 1.1 mM (E032)  inferred decay, not a PaC recording</text><text x="78.00" y="430.00" font-size="9" font-family="sans-serif" fill="#555555" font-weight="normal" text-anchor="start">Herman 25 nM (E034) is not spliced onto this axis</text><line x1="70.00" y1="438.00" x2="70.00" y2="443.00" stroke="#333" stroke-width="1" /><text x="70.00" y="456.00" font-size="10" font-family="sans-serif" fill="#222222" font-weight="normal" text-anchor="middle">0</text><line x1="134.50" y1="438.00" x2="134.50" y2="443.00" stroke="#333" stroke-width="1" /><text x="134.50" y="456.00" font-size="10" font-family="sans-serif" fill="#222222" font-weight="normal" text-anchor="middle">1.2</text><line x1="177.50" y1="438.00" x2="177.50" y2="443.00" stroke="#333" stroke-width="1" /><text x="177.50" y="456.00" font-size="10" font-family="sans-serif" fill="#222222" font-weight="normal" text-anchor="middle">2</text><line x1="285.00" y1="438.00" x2="285.00" y2="443.00" stroke="#333" stroke-width="1" /><text x="285.00" y="456.00" font-size="10" font-family="sans-serif" fill="#222222" font-weight="normal" text-anchor="middle">4</text><line x1="392.50" y1="438.00" x2="392.50" y2="443.00" stroke="#333" stroke-width="1" /><text x="392.50" y="456.00" font-size="10" font-family="sans-serif" fill="#222222" font-weight="normal" text-anchor="middle">6</text><line x1="500.00" y1="438.00" x2="500.00" y2="443.00" stroke="#333" stroke-width="1" /><text x="500.00" y="456.00" font-size="10" font-family="sans-serif" fill="#222222" font-weight="normal" text-anchor="middle">8</text><text x="285.00" y="472.00" font-size="11" font-family="sans-serif" fill="#222222" font-weight="normal" text-anchor="middle">time (ms) — inferred biological τ axis</text><line x1="65.00" y1="438.00" x2="70.00" y2="438.00" stroke="#333" stroke-width="1" /><text x="62.00" y="442.00" font-size="10" font-family="sans-serif" fill="#222222" font-weight="normal" text-anchor="end">0</text><line x1="65.00" y1="369.82" x2="70.00" y2="369.82" stroke="#333" stroke-width="1" /><text x="62.00" y="373.82" font-size="10" font-family="sans-serif" fill="#222222" font-weight="normal" text-anchor="end">0.5</text><line x1="65.00" y1="301.64" x2="70.00" y2="301.64" stroke="#333" stroke-width="1" /><text x="62.00" y="305.64" font-size="10" font-family="sans-serif" fill="#222222" font-weight="normal" text-anchor="end">1</text><line x1="65.00" y1="288.00" x2="70.00" y2="288.00" stroke="#333" stroke-width="1" /><text x="62.00" y="292.00" font-size="10" font-family="sans-serif" fill="#222222" font-weight="normal" text-anchor="end">1.1</text><text x="22.00" y="354.00" font-size="11" font-family="sans-serif" fill="#222222" font-weight="normal" text-anchor="middle" transform="rotate(-90 22 354.0)">inferred [Glu] (mM)</text><rect x="530.00" y="270.00" width="412.00" height="168.00" fill="#fff" stroke="#0d5c4d" stroke-width="2" opacity="1" /><rect x="530.00" y="270.00" width="8.00" height="168.00" fill="#0d5c4d" stroke="none" stroke-width="1" opacity="1" /><text x="552.00" y="292.00" font-size="11" font-family="sans-serif" fill="#0d5c4d" font-weight="bold" text-anchor="start">biological τ</text><text x="552.00" y="316.00" font-size="14" font-family="sans-serif" fill="#222222" font-weight="bold" text-anchor="start">1.2 ms   E033 / C011</text><text x="552.00" y="338.00" font-size="11" font-family="sans-serif" fill="#555555" font-weight="normal" text-anchor="start">quantity type: inferred free-Glu lifetime</text><text x="552.00" y="360.00" font-size="11" font-family="sans-serif" fill="#555555" font-weight="normal" text-anchor="start">not a sensor t90; stored as response_time in ledger</text><text x="552.00" y="382.00" font-size="11" font-family="sans-serif" fill="#555555" font-weight="normal" text-anchor="start">transferable to retina GCL electrode: UNKNOWN</text><text x="552.00" y="404.00" font-size="11" font-family="sans-serif" fill="#555555" font-weight="normal" text-anchor="start">kinetic inference, not a chemical assay</text><text x="552.00" y="424.00" font-size="10" font-family="sans-serif" fill="#555555" font-weight="normal" text-anchor="start">If this τ is the named spec, Layer 3 follows. If it is not, Layer 3 does not grade Hu’s experiment.</text><rect x="16.00" y="492.00" width="948.00" height="328.00" fill="#fff" stroke="#ccc" stroke-width="1" opacity="1" /><text x="28.00" y="514.00" font-size="13" font-family="sans-serif" fill="#222222" font-weight="bold" text-anchor="start">Layer 3  MODELED  — T/τ clock ratios under hypothetical instantaneous occupancy</text><rect x="70.00" y="528.00" width="880.00" height="70.00" fill="#fafafa" stroke="#000" stroke-width="1" opacity="1" /><line x1="195.71" y1="598.00" x2="195.71" y2="604.00" stroke="#333" stroke-width="1" /><text x="195.71" y="618.00" font-size="10" font-family="sans-serif" fill="#222222" font-weight="normal" text-anchor="middle">1 ms</text><line x1="205.67" y1="598.00" x2="205.67" y2="604.00" stroke="#333" stroke-width="1" /><text x="205.67" y="618.00" font-size="10" font-family="sans-serif" fill="#222222" font-weight="normal" text-anchor="middle">1.2 ms</text><line x1="572.86" y1="598.00" x2="572.86" y2="604.00" stroke="#333" stroke-width="1" /><text x="572.86" y="618.00" font-size="10" font-family="sans-serif" fill="#222222" font-weight="normal" text-anchor="middle">1 s</text><line x1="716.94" y1="598.00" x2="716.94" y2="604.00" stroke="#333" stroke-width="1" /><text x="716.94" y="618.00" font-size="10" font-family="sans-serif" fill="#222222" font-weight="normal" text-anchor="middle">14 s</text><line x1="796.40" y1="598.00" x2="796.40" y2="604.00" stroke="#333" stroke-width="1" /><text x="796.40" y="618.00" font-size="10" font-family="sans-serif" fill="#222222" font-weight="normal" text-anchor="middle">60 s</text><line x1="950.00" y1="598.00" x2="950.00" y2="604.00" stroke="#333" stroke-width="1" /><text x="950.00" y="618.00" font-size="10" font-family="sans-serif" fill="#222222" font-weight="normal" text-anchor="middle">10³ s</text><text x="510.00" y="634.00" font-size="11" font-family="sans-serif" fill="#222222" font-weight="normal" text-anchor="middle">log10 time (s) — clocks, not a shared kinetic axis</text><line x1="205.67" y1="536.00" x2="205.67" y2="590.00" stroke="#0d5c4d" stroke-width="3" /><line x1="716.94" y1="536.00" x2="716.94" y2="590.00" stroke="#c45c26" stroke-width="3" /><line x1="796.40" y1="536.00" x2="796.40" y2="590.00" stroke="#5b4b8a" stroke-width="3" /><text x="209.67" y="550.00" font-size="10" font-family="sans-serif" fill="#0d5c4d" font-weight="normal" text-anchor="start">INFERRED τ</text><text x="712.94" y="550.00" font-size="10" font-family="sans-serif" fill="#c45c26" font-weight="normal" text-anchor="end">MEASURED scan</text><text x="800.40" y="566.00" font-size="10" font-family="sans-serif" fill="#5b4b8a" font-weight="normal" text-anchor="start">MEASURED sampling</text><text x="28.00" y="650.00" font-size="13" font-family="sans-serif" fill="#222222" font-weight="bold" text-anchor="start">14 s / 1.2 ms = 11,667 × τ     60 s / 1.2 ms = 50,000 × τ     each clock independently T ≫ τ</text><rect x="70.00" y="668.00" width="720.00" height="90.00" fill="#fafafa" stroke="#000" stroke-width="1" opacity="1" /><rect x="70.00" y="668.00" width="720.00" height="90.00" fill="#c45c26" stroke="none" stroke-width="1" opacity="0.12" /><text x="80.00" y="684.00" font-size="10" font-family="sans-serif" fill="#c45c26" font-weight="normal" text-anchor="start">one 14 s interrogation window (E045) → one scalar; shape is not a degree of freedom</text><line x1="71.00" y1="758.00" x2="71.00" y2="676.00" stroke="#0d5c4d" stroke-width="2" /><text x="78.00" y="704.00" font-size="10" font-family="sans-serif" fill="#0d5c4d" font-weight="normal" text-anchor="start">inferred 1.2 ms waveform — narrower than one pixel on this 14 s axis</text><text x="78.00" y="720.00" font-size="10" font-family="sans-serif" fill="#555555" font-weight="normal" text-anchor="start">Not [Glu] at the GCL-positioned PaC electrode. Spatial dilution unmeasured. No mean nM is plotted.</text><line x1="70.00" y1="758.00" x2="70.00" y2="763.00" stroke="#333" stroke-width="1" /><text x="70.00" y="776.00" font-size="10" font-family="sans-serif" fill="#222222" font-weight="normal" text-anchor="middle">0</text><line x1="430.00" y1="758.00" x2="430.00" y2="763.00" stroke="#333" stroke-width="1" /><text x="430.00" y="776.00" font-size="10" font-family="sans-serif" fill="#222222" font-weight="normal" text-anchor="middle">7</text><line x1="790.00" y1="758.00" x2="790.00" y2="763.00" stroke="#333" stroke-width="1" /><text x="790.00" y="776.00" font-size="10" font-family="sans-serif" fill="#222222" font-weight="normal" text-anchor="middle">14</text><text x="430.00" y="790.00" font-size="11" font-family="sans-serif" fill="#222222" font-weight="normal" text-anchor="middle">time (s) — one interrogation window</text><rect x="806.00" y="652.00" width="140.00" height="118.00" fill="#fff" stroke="#888" stroke-width="1" opacity="1" /><text x="810.00" y="664.00" font-size="9" font-family="sans-serif" fill="#555555" font-weight="normal" text-anchor="start">inset 0–8 ms</text><rect x="810.00" y="668.00" width="132.00" height="90.00" fill="#fafafa" stroke="#000" stroke-width="1" opacity="1" /><polyline points="810.00,677.64 811.10,681.99 812.20,686.09 813.30,689.98 814.40,693.66 815.50,697.13 816.60,700.42 817.70,703.53 818.80,706.48 819.90,709.26 821.00,711.89 822.10,714.39 823.20,716.74 824.30,718.97 825.40,721.08 826.50,723.08 827.60,724.96 828.70,726.75 829.80,728.44 830.90,730.04 832.00,731.55 833.10,732.98 834.20,734.33 835.30,735.61 836.40,736.82 837.50,737.96 838.60,739.05 839.70,740.07 840.80,741.04 841.90,741.96 843.00,742.82 844.10,743.64 845.20,744.42 846.30,745.15 847.40,745.85 848.50,746.50 849.60,747.12 850.70,747.71 851.80,748.27 852.90,748.79 854.00,749.29 855.10,749.76 856.20,750.21 857.30,750.63 858.40,751.03 859.50,751.40 860.60,751.76 861.70,752.10 862.80,752.42 863.90,752.72 865.00,753.00 866.10,753.27 867.20,753.53 868.30,753.77 869.40,754.00 870.50,754.22 871.60,754.42 872.70,754.61 873.80,754.80 874.90,754.97 876.00,755.13 877.10,755.29 878.20,755.43 879.30,755.57 880.40,755.70 881.50,755.83 882.60,755.95 883.70,756.06 884.80,756.16 885.90,756.26 887.00,756.36 888.10,756.44 889.20,756.53 890.30,756.61 891.40,756.68 892.50,756.75 893.60,756.82 894.70,756.89 895.80,756.95 896.90,757.00 898.00,757.06 899.10,757.11 900.20,757.16 901.30,757.20 902.40,757.24 903.50,757.29 904.60,757.32 905.70,757.36 906.80,757.39 907.90,757.43 909.00,757.46 910.10,757.49 911.20,757.52 912.30,757.54 913.40,757.57 914.50,757.59 915.60,757.61 916.70,757.63 917.80,757.65 918.90,757.67 920.00,757.69 921.10,757.71 922.20,757.72 923.30,757.74 924.40,757.75 925.50,757.76 926.60,757.78 927.70,757.79 928.80,757.80 929.90,757.81 931.00,757.82 932.10,757.83 933.20,757.84 934.30,757.85 935.40,757.86 936.50,757.86 937.60,757.87 938.70,757.88 939.80,757.89 940.90,757.89 942.00,757.90" fill="none" stroke="#0d5c4d" stroke-width="1.8" /><text x="20.00" y="822.00" font-size="10" font-family="sans-serif" fill="#555555" font-weight="normal" text-anchor="start">UNKNOWN: PaC occupancy; glutamate kon/koff; [Glu] at GCL.  PROPOSED: fast interrogation of the same oligo on a known millisecond pulse, or lock the spec as basal/graded retina glutamate.</text><text x="20.00" y="842.00" font-size="10" font-family="sans-serif" fill="#555555" font-weight="normal" text-anchor="start">If Layer 3 is correct: on this ACV architecture, missing koff is not what excludes 1.2 ms shape reporting. If Layer 2 is the wrong spec, this figure does not grade Hu’s basal retina experiment.</text></svg>