<svg xmlns="http://www.w3.org/2000/svg" width="920" height="520"><rect x="0" y="0" width="920" height="520" fill="#fff" /><text x="20" y="28" font-size="16" font-family="sans-serif" font-weight="bold">Selected picture: protocol clocks actually run vs 1.2 ms INFERENCE</text><rect x="20" y="40" width="150" height="28" fill="#b7e4c7" stroke="#111" stroke-width="2" /><text x="95.0" y="59.0" font-size="16" font-family="sans-serif" font-weight="bold" text-anchor="middle" fill="#111">MEASURED</text><rect x="180" y="40" width="150" height="28" fill="#90e0ef" stroke="#111" stroke-width="2" /><text x="255.0" y="59.0" font-size="16" font-family="sans-serif" font-weight="bold" text-anchor="middle" fill="#111">MODELED</text><rect x="340" y="40" width="150" height="28" fill="#d3d3d3" stroke="#111" stroke-width="2" /><text x="415.0" y="59.0" font-size="16" font-family="sans-serif" font-weight="bold" text-anchor="middle" fill="#111">UNKNOWN</text><rect x="500" y="40" width="150" height="28" fill="#ffd166" stroke="#111" stroke-width="2" /><text x="575.0" y="59.0" font-size="16" font-family="sans-serif" font-weight="bold" text-anchor="middle" fill="#111">PROPOSED</text><text x="20" y="86" font-size="12" font-family="sans-serif">Protocol times are upper bounds on demonstrated resolution, not chemistry limits (E030). Identity of tissue ACV stays UNKNOWN.</text><rect x="340" y="110" width="540" height="360" fill="#fafafa" stroke="#111" /><line x1="364.6220418887549" y1="110" x2="364.6220418887549" y2="470" stroke="#ddd" stroke-width="1" /><text x="364.6220418887549" y="486" font-size="10" font-family="sans-serif" text-anchor="middle">0.001 s</text><line x1="446.4146945925033" y1="110" x2="446.4146945925033" y2="470" stroke="#ddd" stroke-width="1" /><text x="446.4146945925033" y="486" font-size="10" font-family="sans-serif" text-anchor="middle">0.01 s</text><line x1="528.2073472962517" y1="110" x2="528.2073472962517" y2="470" stroke="#ddd" stroke-width="1" /><text x="528.2073472962517" y="486" font-size="10" font-family="sans-serif" text-anchor="middle">0.1 s</text><line x1="610.0" y1="110" x2="610.0" y2="470" stroke="#ddd" stroke-width="1" /><text x="610.0" y="486" font-size="10" font-family="sans-serif" text-anchor="middle">1 s</text><line x1="691.7926527037483" y1="110" x2="691.7926527037483" y2="470" stroke="#ddd" stroke-width="1" /><text x="691.7926527037483" y="486" font-size="10" font-family="sans-serif" text-anchor="middle">10 s</text><line x1="773.5853054074967" y1="110" x2="773.5853054074967" y2="470" stroke="#ddd" stroke-width="1" /><text x="773.5853054074967" y="486" font-size="10" font-family="sans-serif" text-anchor="middle">100 s</text><line x1="855.3779581112451" y1="110" x2="855.3779581112451" y2="470" stroke="#ddd" stroke-width="1" /><text x="855.3779581112451" y="486" font-size="10" font-family="sans-serif" text-anchor="middle">1000 s</text><text x="610.0" y="504" font-size="12" font-family="sans-serif" text-anchor="middle">log10 time (s)  —  protocol clock, not binding koff</text><text x="16" y="132.0" font-size="11" font-family="sans-serif">Hu AuED-MEA Glu incubation 15 min  E008</text><text x="16" y="146.0" font-size="10" font-family="sans-serif" fill="#444">MEASURED</text><rect x="340" y="118.0" width="511.63533157722077" height="24.0" fill="#b7e4c7" stroke="#111" stroke-width="1" /><text x="16" y="172.0" font-size="11" font-family="sans-serif">PaC 10 nM plateau 10 min  E042</text><text x="16" y="186.0" font-size="10" font-family="sans-serif" fill="#444">MEASURED partial</text><rect x="340" y="158.0" width="497.2323603811137" height="24.0" fill="#b7e4c7" stroke="#111" stroke-width="1" /><text x="16" y="212.0" font-size="11" font-family="sans-serif">Xiao FET after 10 nM 200 s  E027</text><text x="16" y="226.0" font-size="10" font-family="sans-serif" fill="#444">MEASURED</text><rect x="340" y="198.0" width="458.20734729625167" height="24.0" fill="#b7e4c7" stroke="#111" stroke-width="1" /><text x="16" y="252.0" font-size="11" font-family="sans-serif">Retina sampling 1 min/point  E046</text><text x="16" y="266.0" font-size="10" font-family="sans-serif" fill="#444">MEASURED partial</text><rect x="340" y="238.0" width="415.4397076773653" height="24.0" fill="#b7e4c7" stroke="#111" stroke-width="1" /><text x="16" y="292.0" font-size="11" font-family="sans-serif">Retina ACV scan 14 s  E045</text><text x="16" y="306.0" font-size="10" font-family="sans-serif" fill="#444">MEASURED partial</text><rect x="340" y="278.0" width="363.7448523762595" height="24.0" fill="#b7e4c7" stroke="#111" stroke-width="1" /><text x="16" y="332.0" font-size="11" font-family="sans-serif">Cocaine E-AB faster than 4 s scan (not Glu)  E030</text><text x="16" y="346.0" font-size="10" font-family="sans-serif" fill="#444">other-analyte bound</text><rect x="340" y="318.0" width="319.2440837775098" height="24.0" fill="#ffd166" stroke="#111" stroke-width="1" /><text x="16" y="372.0" font-size="11" font-family="sans-serif">Rutherford recording interval 1 s  C022</text><text x="16" y="386.0" font-size="10" font-family="sans-serif" fill="#444">MEASURED</text><rect x="340" y="358.0" width="270.0" height="24.0" fill="#b7e4c7" stroke="#111" stroke-width="1" /><text x="16" y="412.0" font-size="11" font-family="sans-serif">IPA interrogation 2 ms (not koff)  E016</text><text x="16" y="426.0" font-size="10" font-family="sans-serif" fill="#444">MEASURED clock</text><rect x="340" y="398.0" width="49.244083777509786" height="24.0" fill="#b7e4c7" stroke="#111" stroke-width="1" /><text x="16" y="452.0" font-size="11" font-family="sans-serif">Clements cleft decay 1.2 ms  E033</text><text x="16" y="466.0" font-size="10" font-family="sans-serif" fill="#444">INFERENCE</text><rect x="340" y="438.0" width="31.098486047378287" height="24.0" fill="#f4a261" stroke="#111" stroke-width="1" /><text x="20" y="500" font-size="12" font-family="sans-serif">INFERENCE is Clements abstract-only 1.2 ms. Rapid-transient readiness of the 39-mer remains UNKNOWN. PROPOSED identity test is U2.</text></svg>